<?xml version="1.0" encoding="utf-8"?>
<svg version="1.1" xmlns:xlink="http://www.w3.org/1999/xlink" width="29px" height="29px" xmlns="http://www.w3.org/2000/svg">
  <g transform="matrix(1 0 0 1 -801 -139 )">
    <path d="M 20.402688037109378 29  C 16.84920671948433 28.544482239271826  14.165729844821572 25.5388592723906  14.158955808593745 21.961747209960937  C 14.171053087001205 18.08321661107467  17.31862489868704 14.945446880313733  21.197174363453737 14.945446880313733  C 23.05295704517732 14.945446880313733  24.8336412108045 15.678381235380888  26 16.984750585937498  L 26 2.5859395156250002  C 26.151772447311043 1.166500170188081  25.007651387421628 0.012342955771939557  23.58826570703125 0  L 3.350478155273439 0  C 1.922303196808921 0  0.7645386396484375 1.1577645571604833  1 2.5859395156250002  L 1 26.369087629882813  C 0.7645386396484373 27.797262588347326  1.922303196808921 28.95502714550781  3.3504781552734375 29  L 20.402688037109378 29  Z M 3.968657604630936 5.917678983886719  C 3.968657604630936 5.572600238499737  4.229079243835923 5.283157822733757  4.572240876953125 5.246833807617188  L 17.756784706054688 5.246833807617188  C 17.78037224454842 5.244337042180369  17.804075051382902 5.243086053222657  17.827794364396564 5.243086053222657  C 18.200361752345987 5.243086053222657  18.502387295060625 5.545111595937298  18.502387295060625 5.917678983886719  C 18.502387295060625 6.290246371836142  18.200361752345987 6.592271914550781  17.827794364396564 6.592271914550781  C 17.804075051382902 6.592271914550781  17.78037224454842 6.591020925593069  17.756784706054688 7  L 4.572240876953125 7  C 4.229079243835923 6.5522001450396825  3.968657604630936 6.262757729273701  3.968657604630936 5.917678983886719  Z M 12.821210574079997 20.316490054199217  C 12.821210574079997 20.6615687995862  12.560788934875013 20.95101121535218  12.217627301757812 20.98733523046875  L 4.572240876953125 20.98733523046875  C 4.229079243835926 20.951011215352178  3.968657604630941 20.6615687995862  3.968657604630941 20.316490054199217  C 3.968657604630941 19.971411308812236  4.229079243835926 19.68196889304626  4.572240876953125 19.64564487792969  L 12.217627301757812 19.64564487792969  C 12.560788934875013 19.68196889304626  12.821210574079997 19.971411308812236  12.821210574079997 20.316490054199217  Z M 12.821210574079997 13.053372963378909  C 12.821210574079997 13.39845170876589  12.560788934875013 13.68789412453187  12.217627301757812 13.724218139648439  L 4.572240876953125 13.724218139648439  C 4.229079243835926 13.687894124531867  3.968657604630941 13.39845170876589  3.968657604630941 13.053372963378909  C 3.968657604630941 12.708294217991927  4.229079243835926 12.41885180222595  4.572240876953125 12.382527787109378  L 12.217627301757812 12.382527787109378  C 12.560788934875013 12.41885180222595  12.821210574079997 12.708294217991927  12.821210574079997 13.053372963378909  Z M 28.231634950604406 21.958806069393162  C 28.231634950604406 20.095942862811082  27.491544959943255 18.309392733638823  26.174205222656248 16.99224606640625  L 26.174205222656244 18.78366502050781  C 27.418910908584657 20.71957667313241  27.418910908584657 23.203917746789465  26.174205222656248 25.13982939941406  L 26.174205222656248 26.376583110351568  C 26.171101030917892 26.591889760197446  26.140881124348937 26.805947394460304  26.08425948535156 27.013698638671872  C 27.45649931725083 25.690053201585464  28.231634950604406 23.865394488368427  28.231634950604406 21.958806069393162  Z M 21.9242698359375 28.95502714550781  L 20.425174450195314 28.95502714550781  C 20.923321038544856 29.01072162757837  21.426123247587956 29.01072162757837  21.9242698359375 28.95502714550781  Z " fill-rule="nonzero" fill="#4bd863" stroke="none" fill-opacity="0.996078431372549" transform="matrix(1 0 0 1 801 139 )" />
  </g>
</svg>