<?xml version="1.0" encoding="utf-8"?>
<svg version="1.1" xmlns:xlink="http://www.w3.org/1999/xlink" width="28px" height="30px" xmlns="http://www.w3.org/2000/svg">
  <g transform="matrix(1 0 0 1 -581 -139 )">
    <path d="M 24.729374990234376 18.75  L 24.729374990234376 27.083124990234378  C 24.729374990234376 27.313358719223555  24.54273369969231 27.500000009765625  24.3125 27.500000009765625  C 24.3125 27.500000009765625  24.3125 27.500000009765625  24.3125 27  L 3.479374999999999 27  C 3.479374999999999 27.500000009765625  3.479374999999999 27.500000009765625  3.479374999999999 27.500000009765625  C 3.249141300307693 27.500000009765625  3.062500009765624 27.313358719223555  3.062500009765624 27.08312501953125  L 3.0625000097656248 18.75  C 3.0625000097656248 18.519999990234375  3.24937501953125 18.333125009765624  3.479374999999999 18  L 24.3125 18  C 24.542500009765625 18.333125009765624  24.729374990234376 18.52000001953125  24.729374990234376 18.75  Z M 4.729375009765624 13.324374990234373  C 4.729375009765624 12.629374980468748  5.279375 12.065624999999999  5.957500009765624 12.065624999999999  L 7.383125 12.065624999999999  C 8.060624990234375 12.065624999999999  8.610625009765625 12.629375009765624  8.610625009765625 13.324374990234373  C 8.610625009765625 14.019374999999998  8.060625019531251 14.583124980468748  7.383125 14.583125009765624  L 5.957500009765624 14.583125009765624  C 5.279375 14.583125009765624  4.729375009765624 14.019374999999998  4.729375009765624 13.324374990234373  Z M 4.729375009765624 5.842499999999999  C 4.729375009765624 5.147499990234374  5.279375 4.583124990234374  5.957500009765624 4.583124990234374  L 7.383125 4.583124990234374  C 8.060624990234375 4.583124990234374  8.610625009765625 5.147499990234374  8.610625009765625 5.842499999999999  C 8.610625009765625 6.537500009765624  8.060625019531251 7.100625000000001  7.383125 7.100625000000001  L 5.957500009765624 7.100625000000001  C 5.279375 7.100625000000001  4.729375009765624 6.537500009765624  4.729375009765624 5.842499999999999  Z M 9.980624990234375 13.324374990234373  C 9.980624990234375 12.629374980468748  10.53062498046875 12.065624999999999  11.208124999999999 12  L 21.834374990234373 12  C 22.5125 12.065624999999999  23.06249999023437 12.629375009765624  23.06249999023437 13.324374990234373  C 23.06249999023437 14.019374999999998  22.5125 14.583124980468748  21.834374990234373 15  L 11.208125 15  C 10.530625009765625 14.583125009765624  9.980624990234375 14.019374999999998  9.980624990234375 13.324374990234373  Z M 9.980624990234375 5.842499999999999  C 9.980624990234375 5.147499990234374  10.53062498046875 4.583124990234374  11.208124999999999 5  L 21.834374990234373 5  C 22.5125 4.583124990234374  23.06249999023437 5.147499990234374  23.06249999023437 5.842499999999999  C 23.06249999023437 6.537500009765624  22.5125 7.100625000000001  21.834374990234373 7.100625000000001  L 11.208125 7.100625000000001  C 10.530625009765625 7.100625000000001  9.980624990234375 6.537500009765624  9.980624990234375 5.842499999999999  Z M 27 1.666875  C 27.229030084730987 0.7464282681113534  26.482946741654267 0.00034492503463612323  25.562500009765625 0  L 2.229374990234375 0  C 1.3089282583457278 0.00034492503463368074  0.5628449152690087 0.7464282681113532  1 1.666875  L 1 28.333125  C 0.5628449152690096 29.25357173188864  1.3089282583457291 29.999655074965364  2.229374990234375 30  L 25.562500009765625 29.999999999999996  C 26.482946741654267 29.99965507496536  27.229030084730987 29.25357173188864  27 28.333125000000003  L 27 1.666875  Z M 7.383125 21.233124990234376  C 8.060624990234375 21.233124990234376  8.61125 21.79624998046875  8.61125 22.491249990234373  C 8.61125 23.18625  8.060624990234375 23.750625  7.383125 23.750625  L 5.95625 23.750625  C 5.278750009765624 23.750625  4.7281249999999995 23.18625  4.7281249999999995 22.491249990234373  C 4.7281249999999995 21.79624998046875  5.278750009765624 21.233124990234376  5.95625 21.233124990234376  L 7.382500009765625 21.233124990234376  Z M 11.208749990234374 21  L 21.834374990234373 21  C 22.511874980468747 21.233124990234376  23.06312498046875 21.79624998046875  23.063125009765624 22.491249990234373  C 23.063125009765624 23.18625  22.51187500976562 23.750625  21.834374990234373 23.750625  L 11.208749990234374 23.750625  C 10.531249999999998 23.750625  9.980624990234373 23.18625  9.980624990234373 22.491249990234373  C 9.980624990234373 21.79624998046875  10.530624980468748 21.233124990234376  11.208749990234374 21  Z " fill-rule="nonzero" fill="#2f86f6" stroke="none" transform="matrix(1 0 0 1 581 139 )" />
  </g>
</svg>