<?xml version="1.0" encoding="utf-8"?>
<svg version="1.1" xmlns:xlink="http://www.w3.org/1999/xlink" width="24px" height="30px" xmlns="http://www.w3.org/2000/svg">
  <g transform="matrix(1 0 0 1 -802 -260 )">
    <path d="M 14.69918181818182 1  L 14.697272727272729 0.8999999999999999  L 14.697272727272729 8.0253  L 5.9670000000000005 8.0253  C 5.241545454545455 8.0253  4.760454545454545 8.319299999999998  4.760454545454545 8.760299999999997  C 4.760454545454545 9.1908  5.224363636363636 9.482699999999998  5.925 9.495299999999999  L 14.697272727272729 9.495299999999999  L 14.697272727272729 13.752  L 5.424818181818181 13.752  C 5.023909090909091 13.752  4.756636363636363 14.046  4.756636363636363 14.487  C 4.756636363636363 14.915399999999998  5.010545454545454 15.205199999999998  5.394272727272727 15.222  L 14.682 15.222  C 13.488596076831914 16.361642523379366  12.596886113196806 17.834414970714572  12.100909090909092 19.485000000000003  L 5.424818181818181 19.485000000000003  C 5.023909090909091 19.485000000000003  4.756636363636363 19.779000000000003  4.756636363636363 20.2179  C 4.756636363636363 20.6463  5.010545454545454 20.936100000000003  5.394272727272727 20.952899999999996  L 11.776363636363635 20.952899999999996  C 11.698767215102253 21.476378705764994  11.659821843786204 22.00590806592123  11.65990909090909 22.536299999999997  C 11.65990909090909 24.860999999999997  12.396818181818183 27.061799999999995  13.750363636363636 28.8111  L 3.488999999999999 28.811099999999993  C 2.033327482288221 28.806853596080472  0.8472279993884846 27.524526599736035  1 25.923600000000004  L 1 3.84  C 0.8181818181818181 2.2398000000000002  1.996090909090909 0.9272999999999998  3.4431818181818183 1  L 14.69918181818182 1  Z M 23.523 3.7875  L 23.52109090909091 3.7875  L 23.521090909090905 13.4244  C 22.546703667791615 13.03312784395035  21.517189146938275 12.834075444438216  20.47990909090909 12.836400000000001  C 19.180045834913788 12.83303542279451  17.895643773238664 13.146442565458079  16.718999999999998 13.7541  L 14.701090909090912 13.7541  L 14.701090909090912 9.4932  L 18.519272727272725 9.4932  C 19.244727272727275 9.4932  19.727727272727275 9.199200000000001  19.727727272727275 8.7582  C 19.727727272727275 8.317200000000001  19.244727272727275 8.023200000000001  18.51927272727273 8.023200000000001  L 14.701090909090912 8.023200000000001  L 14.701090909090912 0.8999999999999999  L 20.852181818181823 0.8999999999999999  C 22.306909090909095 0.8999999999999999  23.49818181818182 2.1956999999999995  23.523 3.7875  Z " fill-rule="nonzero" fill="#fe9400" stroke="none" transform="matrix(1 0 0 1 802 260 )" />
  </g>
</svg>