<?xml version="1.0" encoding="utf-8"?>
<svg version="1.1" xmlns:xlink="http://www.w3.org/1999/xlink" width="28px" height="29px" xmlns="http://www.w3.org/2000/svg">
  <g transform="matrix(1 0 0 1 -581 -259 )">
    <path d="M 19.699147070312502 29  C 16.26819959122625 28.544482239271826  13.67725640189669 25.5388592723906  13.670715953124997 21.961747209960937  C 13.682396084001164 18.08321661107467  16.721430936663353 14.945446880313733  20.46623731643809 14.945446880313733  C 22.258027491895344 14.945446880313733  23.977308755259518 15.678381235380888  25 16.984750585937498  L 25 2.5859395156250002  C 25.249987190507213 1.166500170188081  24.14531858095881 0.012342955771939557  22.774877234375 0  L 3.234944425781251 0  C 1.856016879677579 0  0.73817523828125 1.1577645571604833  1 2.5859395156250002  L 1 26.369087629882813  C 0.7381752382812499 27.797262588347326  1.856016879677579 28.95502714550781  3.23494442578125 29  L 19.699147070312502 29  Z M 3.831807342402283 5.917678983886719  C 3.831807342402283 5.572600238499737  4.08324892508296 5.283157822733757  4.4145773984375 5.246833807617188  L 17.144481785156252 5.246833807617188  C 17.167255960253648 5.244337042180369  17.190141428921425 5.243086053222657  17.213042834589785 5.243086053222657  C 17.572763071230607 5.243086053222657  17.864373940058535 5.545111595937298  17.864373940058535 5.917678983886719  C 17.864373940058535 6.290246371836142  17.572763071230607 6.592271914550781  17.213042834589785 6.592271914550781  C 17.190141428921425 6.592271914550781  17.167255960253648 6.591020925593069  17.144481785156252 7  L 4.4145773984375 7  C 4.08324892508296 6.5522001450396825  3.831807342402283 6.262757729273701  3.831807342402283 5.917678983886719  Z M 12.379099864628962 20.316490054199217  C 12.379099864628962 20.6615687995862  12.127658281948289 20.95101121535218  11.79632980859375 20.98733523046875  L 4.4145773984375 20.98733523046875  C 4.083248925082962 20.951011215352178  3.8318073424022883 20.6615687995862  3.8318073424022883 20.316490054199217  C 3.8318073424022883 19.971411308812236  4.083248925082962 19.68196889304626  4.4145773984375 19.64564487792969  L 11.79632980859375 19.64564487792969  C 12.127658281948289 19.68196889304626  12.379099864628962 19.971411308812236  12.379099864628962 20.316490054199217  Z M 12.379099864628962 13.053372963378909  C 12.379099864628962 13.39845170876589  12.127658281948289 13.68789412453187  11.79632980859375 13.724218139648439  L 4.4145773984375 13.724218139648439  C 4.083248925082962 13.687894124531867  3.8318073424022883 13.39845170876589  3.8318073424022883 13.053372963378909  C 3.8318073424022883 12.708294217991927  4.083248925082962 12.41885180222595  4.4145773984375 12.382527787109378  L 11.79632980859375 12.382527787109378  C 12.127658281948289 12.41885180222595  12.379099864628962 12.708294217991927  12.379099864628962 13.053372963378909  Z M 27.25813029713529 21.958806069393162  C 27.25813029713529 20.095942862811082  26.543560650979693 18.309392733638823  25.271646421874998 16.99224606640625  L 25.271646421874994 18.78366502050781  C 26.47343122208174 20.71957667313241  26.47343122208174 23.203917746789465  25.271646421874998 25.13982939941406  L 25.271646421874998 26.376583110351568  C 25.26864927123107 26.591889760197446  25.23947143040587 26.805947394460304  25.184802261718744 27.013698638671872  C 26.50972347872494 25.690053201585464  27.25813029713529 23.865394488368427  27.25813029713529 21.958806069393162  Z M 21.168260531250002 28.95502714550781  L 19.72085808984375 28.95502714550781  C 20.201827209629517 29.01072162757837  20.687291411464233 29.01072162757837  21.168260531250002 28.95502714550781  Z " fill-rule="nonzero" fill="#00b0c0" stroke="none" transform="matrix(1 0 0 1 581 259 )" />
  </g>
</svg>